# xmcd
#
# Track frame offsets:
#	150
#	17163
#	30541
#	49502
#	62708
#	77842
#	94345
#	109314
#	126677
#	144081
#
# Disc length: 2083 seconds
#
# Revision: 0
# Processed by: cddbd v1.5.2PL0 Copyright (c) Steve Scherf et al.
# Submitted via: EasyCDDAExtractor 16.0.4.1
#
DISCID=8608210a
DTITLE=Accoustic Lounge Trio - Wanted
DYEAR=1900
DGENRE=
TTITLE0=Avicii - Wake Me Up
TTITLE1=Vaya Con Dios - Nah Neh Nah
TTITLE2=Cyndi Lauper - Time After Time
TTITLE3=Big Bill Broonzy - Key To The Highway
TTITLE4=Sting - Fields Of Gold
TTITLE5=Avicii - Hey Brother
TTITLE6=Norah Jones - Sunrise
TTITLE7=Adele - Rolling In The Deep
TTITLE8=Amy Winehouse - Rehab
TTITLE9=Avicii - Addicted To You
EXTD=
EXTT0=
EXTT1=
EXTT2=
EXTT3=
EXTT4=
EXTT5=
EXTT6=
EXTT7=
EXTT8=
EXTT9=
PLAYORDER=
